<mxfile host="Electron" modified="2024-03-11T05:01:18.793Z" agent="Mozilla/5.0 (Macintosh; Intel Mac OS X 10_15_7) AppleWebKit/537.36 (KHTML, like Gecko) draw.io/23.1.5 Chrome/120.0.6099.109 Electron/28.1.0 Safari/537.36" etag="4X8i_xG6ZGJ-aZ-cZbzJ" version="23.1.5" type="device">
  <diagram id="prtHgNgQTEPvFCAcTncT" name="Page-1">
    <mxGraphModel dx="1343" dy="323" grid="1" gridSize="10" guides="1" tooltips="1" connect="1" arrows="1" fold="1" page="1" pageScale="1" pageWidth="827" pageHeight="1169" math="0" shadow="0">
      <root>
        <mxCell id="0" />
        <mxCell id="1" parent="0" />
        <mxCell id="4t9yoJMSTtvMrReP9KKP-72" value="" style="rounded=0;whiteSpace=wrap;html=1;fillColor=#a0522d;fontColor=#ffffff;strokeColor=#6D1F00;" vertex="1" parent="1">
          <mxGeometry x="160" y="1100" width="1320" height="340" as="geometry" />
        </mxCell>
        <mxCell id="4t9yoJMSTtvMrReP9KKP-64" value="" style="rounded=0;whiteSpace=wrap;html=1;fillColor=#fa6800;fontColor=#000000;strokeColor=#C73500;" vertex="1" parent="1">
          <mxGeometry x="160" y="640" width="1320" height="460" as="geometry" />
        </mxCell>
        <mxCell id="4t9yoJMSTtvMrReP9KKP-27" value="" style="rounded=0;whiteSpace=wrap;html=1;fillColor=#f0a30a;strokeColor=#BD7000;fontColor=#000000;" vertex="1" parent="1">
          <mxGeometry x="160" y="240" width="1320" height="400" as="geometry" />
        </mxCell>
        <mxCell id="4t9yoJMSTtvMrReP9KKP-2" value="User" style="rounded=1;whiteSpace=wrap;html=1;" vertex="1" parent="1">
          <mxGeometry x="160" y="130" width="120" height="60" as="geometry" />
        </mxCell>
        <mxCell id="4t9yoJMSTtvMrReP9KKP-4" value="" style="rounded=1;whiteSpace=wrap;html=1;" vertex="1" parent="1">
          <mxGeometry x="450" y="320" width="20" height="80" as="geometry" />
        </mxCell>
        <mxCell id="4t9yoJMSTtvMrReP9KKP-5" value="UI" style="rounded=1;whiteSpace=wrap;html=1;" vertex="1" parent="1">
          <mxGeometry x="400" y="130" width="120" height="60" as="geometry" />
        </mxCell>
        <mxCell id="4t9yoJMSTtvMrReP9KKP-6" value="Experience&lt;br&gt;Layer" style="rounded=1;whiteSpace=wrap;html=1;" vertex="1" parent="1">
          <mxGeometry x="640" y="130" width="120" height="60" as="geometry" />
        </mxCell>
        <mxCell id="4t9yoJMSTtvMrReP9KKP-9" value="Microservice&lt;br&gt;Layer" style="rounded=1;whiteSpace=wrap;html=1;" vertex="1" parent="1">
          <mxGeometry x="880" y="130" width="120" height="60" as="geometry" />
        </mxCell>
        <mxCell id="4t9yoJMSTtvMrReP9KKP-10" value="DynamoDB" style="rounded=1;whiteSpace=wrap;html=1;" vertex="1" parent="1">
          <mxGeometry x="1120.5" y="130" width="120" height="60" as="geometry" />
        </mxCell>
        <mxCell id="4t9yoJMSTtvMrReP9KKP-11" value="" style="endArrow=classic;html=1;rounded=0;entryX=0;entryY=0.25;entryDx=0;entryDy=0;exitX=1;exitY=0.75;exitDx=0;exitDy=0;" edge="1" parent="1" source="4t9yoJMSTtvMrReP9KKP-13" target="4t9yoJMSTtvMrReP9KKP-4">
          <mxGeometry width="50" height="50" relative="1" as="geometry">
            <mxPoint x="260" y="350" as="sourcePoint" />
            <mxPoint x="510" y="335" as="targetPoint" />
          </mxGeometry>
        </mxCell>
        <mxCell id="4t9yoJMSTtvMrReP9KKP-12" value="customer selects &lt;br&gt;menu tab" style="text;html=1;align=center;verticalAlign=middle;resizable=0;points=[];autosize=1;strokeColor=none;fillColor=none;" vertex="1" parent="1">
          <mxGeometry x="280" y="250" width="110" height="40" as="geometry" />
        </mxCell>
        <mxCell id="4t9yoJMSTtvMrReP9KKP-13" value="" style="rounded=1;whiteSpace=wrap;html=1;" vertex="1" parent="1">
          <mxGeometry x="210" y="280" width="20" height="80" as="geometry" />
        </mxCell>
        <mxCell id="4t9yoJMSTtvMrReP9KKP-14" value="" style="endArrow=classic;html=1;rounded=0;entryX=0;entryY=0.25;entryDx=0;entryDy=0;exitX=1;exitY=0.75;exitDx=0;exitDy=0;" edge="1" parent="1" source="4t9yoJMSTtvMrReP9KKP-4" target="4t9yoJMSTtvMrReP9KKP-15">
          <mxGeometry width="50" height="50" relative="1" as="geometry">
            <mxPoint x="490" y="370" as="sourcePoint" />
            <mxPoint x="620" y="375" as="targetPoint" />
          </mxGeometry>
        </mxCell>
        <mxCell id="4t9yoJMSTtvMrReP9KKP-15" value="" style="rounded=1;whiteSpace=wrap;html=1;" vertex="1" parent="1">
          <mxGeometry x="690" y="360" width="20" height="80" as="geometry" />
        </mxCell>
        <mxCell id="4t9yoJMSTtvMrReP9KKP-16" value="UI makes a call to the &lt;br&gt;MenuService" style="text;html=1;align=center;verticalAlign=middle;resizable=0;points=[];autosize=1;strokeColor=none;fillColor=none;" vertex="1" parent="1">
          <mxGeometry x="515" y="310" width="140" height="40" as="geometry" />
        </mxCell>
        <mxCell id="4t9yoJMSTtvMrReP9KKP-18" value="" style="endArrow=classic;html=1;rounded=0;exitX=1;exitY=0.75;exitDx=0;exitDy=0;" edge="1" parent="1" source="4t9yoJMSTtvMrReP9KKP-15">
          <mxGeometry width="50" height="50" relative="1" as="geometry">
            <mxPoint x="820" y="350" as="sourcePoint" />
            <mxPoint x="1170" y="420" as="targetPoint" />
          </mxGeometry>
        </mxCell>
        <mxCell id="4t9yoJMSTtvMrReP9KKP-19" value="" style="rounded=1;whiteSpace=wrap;html=1;" vertex="1" parent="1">
          <mxGeometry x="1171" y="400" width="20" height="120" as="geometry" />
        </mxCell>
        <mxCell id="4t9yoJMSTtvMrReP9KKP-20" value="retrieves the menu data&amp;nbsp;" style="text;html=1;align=center;verticalAlign=middle;resizable=0;points=[];autosize=1;strokeColor=none;fillColor=none;" vertex="1" parent="1">
          <mxGeometry x="872" y="445" width="150" height="30" as="geometry" />
        </mxCell>
        <mxCell id="4t9yoJMSTtvMrReP9KKP-21" value="PSQL" style="rounded=1;whiteSpace=wrap;html=1;" vertex="1" parent="1">
          <mxGeometry x="1360" y="130" width="120" height="60" as="geometry" />
        </mxCell>
        <mxCell id="4t9yoJMSTtvMrReP9KKP-22" value="" style="rounded=1;whiteSpace=wrap;html=1;" vertex="1" parent="1">
          <mxGeometry x="690" y="480" width="20" height="80" as="geometry" />
        </mxCell>
        <mxCell id="4t9yoJMSTtvMrReP9KKP-23" value="" style="endArrow=classic;html=1;rounded=0;entryX=1;entryY=0.25;entryDx=0;entryDy=0;exitX=-0.05;exitY=0.842;exitDx=0;exitDy=0;exitPerimeter=0;" edge="1" parent="1" source="4t9yoJMSTtvMrReP9KKP-19" target="4t9yoJMSTtvMrReP9KKP-22">
          <mxGeometry width="50" height="50" relative="1" as="geometry">
            <mxPoint x="710" y="350" as="sourcePoint" />
            <mxPoint x="760" y="300" as="targetPoint" />
          </mxGeometry>
        </mxCell>
        <mxCell id="4t9yoJMSTtvMrReP9KKP-24" value="" style="rounded=1;whiteSpace=wrap;html=1;" vertex="1" parent="1">
          <mxGeometry x="450" y="520" width="20" height="80" as="geometry" />
        </mxCell>
        <mxCell id="4t9yoJMSTtvMrReP9KKP-25" value="" style="endArrow=classic;html=1;rounded=0;entryX=1;entryY=0.25;entryDx=0;entryDy=0;exitX=0;exitY=0.75;exitDx=0;exitDy=0;" edge="1" parent="1" source="4t9yoJMSTtvMrReP9KKP-22" target="4t9yoJMSTtvMrReP9KKP-24">
          <mxGeometry width="50" height="50" relative="1" as="geometry">
            <mxPoint x="710" y="350" as="sourcePoint" />
            <mxPoint x="760" y="300" as="targetPoint" />
          </mxGeometry>
        </mxCell>
        <mxCell id="4t9yoJMSTtvMrReP9KKP-26" value="loades menu data into display" style="text;html=1;align=center;verticalAlign=middle;resizable=0;points=[];autosize=1;strokeColor=none;fillColor=none;" vertex="1" parent="1">
          <mxGeometry x="480" y="495" width="180" height="30" as="geometry" />
        </mxCell>
        <mxCell id="4t9yoJMSTtvMrReP9KKP-29" value="process: populating menu list" style="rounded=1;whiteSpace=wrap;html=1;" vertex="1" parent="1">
          <mxGeometry x="-10" y="415" width="120" height="60" as="geometry" />
        </mxCell>
        <mxCell id="4t9yoJMSTtvMrReP9KKP-30" value="" style="rounded=1;whiteSpace=wrap;html=1;" vertex="1" parent="1">
          <mxGeometry x="210" y="560" width="20" height="120" as="geometry" />
        </mxCell>
        <mxCell id="4t9yoJMSTtvMrReP9KKP-33" value="" style="endArrow=classic;html=1;rounded=0;entryX=1;entryY=0.25;entryDx=0;entryDy=0;exitX=0;exitY=0.75;exitDx=0;exitDy=0;" edge="1" parent="1">
          <mxGeometry width="50" height="50" relative="1" as="geometry">
            <mxPoint x="450" y="580" as="sourcePoint" />
            <mxPoint x="230" y="580" as="targetPoint" />
          </mxGeometry>
        </mxCell>
        <mxCell id="4t9yoJMSTtvMrReP9KKP-34" value="Customer makes an order" style="text;html=1;align=center;verticalAlign=middle;resizable=0;points=[];autosize=1;strokeColor=none;fillColor=none;" vertex="1" parent="1">
          <mxGeometry x="254" y="630" width="160" height="30" as="geometry" />
        </mxCell>
        <mxCell id="4t9yoJMSTtvMrReP9KKP-35" value="" style="rounded=1;whiteSpace=wrap;html=1;" vertex="1" parent="1">
          <mxGeometry x="450" y="640" width="20" height="80" as="geometry" />
        </mxCell>
        <mxCell id="4t9yoJMSTtvMrReP9KKP-36" value="Customer views menu" style="text;html=1;align=center;verticalAlign=middle;resizable=0;points=[];autosize=1;strokeColor=none;fillColor=none;" vertex="1" parent="1">
          <mxGeometry x="275" y="545" width="140" height="30" as="geometry" />
        </mxCell>
        <mxCell id="4t9yoJMSTtvMrReP9KKP-37" value="" style="endArrow=classic;html=1;rounded=0;entryX=0;entryY=0.25;entryDx=0;entryDy=0;exitX=0.95;exitY=0.817;exitDx=0;exitDy=0;exitPerimeter=0;" edge="1" parent="1" source="4t9yoJMSTtvMrReP9KKP-30" target="4t9yoJMSTtvMrReP9KKP-35">
          <mxGeometry width="50" height="50" relative="1" as="geometry">
            <mxPoint x="380" y="550" as="sourcePoint" />
            <mxPoint x="430" y="500" as="targetPoint" />
          </mxGeometry>
        </mxCell>
        <mxCell id="4t9yoJMSTtvMrReP9KKP-38" value="" style="rounded=1;whiteSpace=wrap;html=1;" vertex="1" parent="1">
          <mxGeometry x="690" y="680" width="20" height="80" as="geometry" />
        </mxCell>
        <mxCell id="4t9yoJMSTtvMrReP9KKP-39" value="" style="endArrow=classic;html=1;rounded=0;entryX=0;entryY=0.25;entryDx=0;entryDy=0;exitX=0.95;exitY=0.817;exitDx=0;exitDy=0;exitPerimeter=0;" edge="1" parent="1">
          <mxGeometry width="50" height="50" relative="1" as="geometry">
            <mxPoint x="469" y="700" as="sourcePoint" />
            <mxPoint x="690" y="702" as="targetPoint" />
          </mxGeometry>
        </mxCell>
        <mxCell id="4t9yoJMSTtvMrReP9KKP-40" value="UI makes a call to the&lt;br&gt;OrderService" style="text;html=1;align=center;verticalAlign=middle;resizable=0;points=[];autosize=1;strokeColor=none;fillColor=none;" vertex="1" parent="1">
          <mxGeometry x="515" y="655" width="140" height="40" as="geometry" />
        </mxCell>
        <mxCell id="4t9yoJMSTtvMrReP9KKP-41" value="" style="rounded=1;whiteSpace=wrap;html=1;" vertex="1" parent="1">
          <mxGeometry x="1170.5" y="720" width="20" height="120" as="geometry" />
        </mxCell>
        <mxCell id="4t9yoJMSTtvMrReP9KKP-42" value="" style="endArrow=classic;html=1;rounded=0;exitX=1;exitY=0.75;exitDx=0;exitDy=0;" edge="1" parent="1">
          <mxGeometry width="50" height="50" relative="1" as="geometry">
            <mxPoint x="710" y="740" as="sourcePoint" />
            <mxPoint x="1170" y="740" as="targetPoint" />
          </mxGeometry>
        </mxCell>
        <mxCell id="4t9yoJMSTtvMrReP9KKP-43" value="Updates stock log of items sold&amp;nbsp;" style="text;html=1;align=center;verticalAlign=middle;resizable=0;points=[];autosize=1;strokeColor=none;fillColor=none;" vertex="1" parent="1">
          <mxGeometry x="865" y="685" width="190" height="30" as="geometry" />
        </mxCell>
        <mxCell id="4t9yoJMSTtvMrReP9KKP-44" value="" style="rounded=1;whiteSpace=wrap;html=1;" vertex="1" parent="1">
          <mxGeometry x="930" y="800" width="20" height="120" as="geometry" />
        </mxCell>
        <mxCell id="4t9yoJMSTtvMrReP9KKP-45" value="" style="endArrow=classic;html=1;rounded=0;entryX=1.1;entryY=0.171;entryDx=0;entryDy=0;entryPerimeter=0;exitX=-0.025;exitY=0.829;exitDx=0;exitDy=0;exitPerimeter=0;" edge="1" parent="1" source="4t9yoJMSTtvMrReP9KKP-41" target="4t9yoJMSTtvMrReP9KKP-44">
          <mxGeometry width="50" height="50" relative="1" as="geometry">
            <mxPoint x="1160" y="820" as="sourcePoint" />
            <mxPoint x="970" y="820" as="targetPoint" />
          </mxGeometry>
        </mxCell>
        <mxCell id="4t9yoJMSTtvMrReP9KKP-46" value="decreases stock count from&lt;br&gt;inventory service EOD" style="text;html=1;align=center;verticalAlign=middle;resizable=0;points=[];autosize=1;strokeColor=none;fillColor=none;" vertex="1" parent="1">
          <mxGeometry x="990.5" y="760" width="170" height="40" as="geometry" />
        </mxCell>
        <mxCell id="4t9yoJMSTtvMrReP9KKP-47" value="" style="rounded=1;whiteSpace=wrap;html=1;" vertex="1" parent="1">
          <mxGeometry x="1410" y="880" width="20" height="200" as="geometry" />
        </mxCell>
        <mxCell id="4t9yoJMSTtvMrReP9KKP-48" value="" style="endArrow=classic;html=1;rounded=0;exitX=1.15;exitY=0.838;exitDx=0;exitDy=0;exitPerimeter=0;entryX=0;entryY=0.073;entryDx=0;entryDy=0;entryPerimeter=0;" edge="1" parent="1" source="4t9yoJMSTtvMrReP9KKP-44" target="4t9yoJMSTtvMrReP9KKP-47">
          <mxGeometry width="50" height="50" relative="1" as="geometry">
            <mxPoint x="971" y="900" as="sourcePoint" />
            <mxPoint x="1130" y="900" as="targetPoint" />
          </mxGeometry>
        </mxCell>
        <mxCell id="4t9yoJMSTtvMrReP9KKP-49" value="updates stock count &lt;br&gt;within inventory service" style="text;html=1;align=center;verticalAlign=middle;resizable=0;points=[];autosize=1;strokeColor=none;fillColor=none;" vertex="1" parent="1">
          <mxGeometry x="1091" y="850" width="150" height="40" as="geometry" />
        </mxCell>
        <mxCell id="4t9yoJMSTtvMrReP9KKP-50" value="" style="rounded=1;whiteSpace=wrap;html=1;" vertex="1" parent="1">
          <mxGeometry x="930" y="960" width="20" height="120" as="geometry" />
        </mxCell>
        <mxCell id="4t9yoJMSTtvMrReP9KKP-52" value="retrieve menu items/ingredients from inventory service" style="text;html=1;align=center;verticalAlign=middle;resizable=0;points=[];autosize=1;strokeColor=none;fillColor=none;" vertex="1" parent="1">
          <mxGeometry x="1015" y="940" width="310" height="30" as="geometry" />
        </mxCell>
        <mxCell id="4t9yoJMSTtvMrReP9KKP-54" value="" style="endArrow=none;html=1;rounded=0;entryX=0;entryY=0.181;entryDx=0;entryDy=0;entryPerimeter=0;startArrow=block;startFill=1;endFill=0;" edge="1" parent="1">
          <mxGeometry width="50" height="50" relative="1" as="geometry">
            <mxPoint x="950" y="1022" as="sourcePoint" />
            <mxPoint x="1410.0000000000005" y="1021.72" as="targetPoint" />
          </mxGeometry>
        </mxCell>
        <mxCell id="4t9yoJMSTtvMrReP9KKP-55" value="calculate menu items availability from inventory service" style="text;html=1;align=center;verticalAlign=middle;resizable=0;points=[];autosize=1;strokeColor=none;fillColor=none;" vertex="1" parent="1">
          <mxGeometry x="1010" y="985" width="320" height="30" as="geometry" />
        </mxCell>
        <mxCell id="4t9yoJMSTtvMrReP9KKP-56" value="" style="endArrow=classic;html=1;rounded=0;exitX=1.1;exitY=0.85;exitDx=0;exitDy=0;exitPerimeter=0;entryX=0;entryY=0.181;entryDx=0;entryDy=0;entryPerimeter=0;" edge="1" parent="1">
          <mxGeometry width="50" height="50" relative="1" as="geometry">
            <mxPoint x="950" y="980.28" as="sourcePoint" />
            <mxPoint x="1408.0000000000005" y="980" as="targetPoint" />
          </mxGeometry>
        </mxCell>
        <mxCell id="4t9yoJMSTtvMrReP9KKP-58" value="" style="endArrow=classic;html=1;rounded=0;exitX=1.1;exitY=0.85;exitDx=0;exitDy=0;exitPerimeter=0;entryX=0;entryY=0.181;entryDx=0;entryDy=0;entryPerimeter=0;" edge="1" parent="1">
          <mxGeometry width="50" height="50" relative="1" as="geometry">
            <mxPoint x="950" y="1060.28" as="sourcePoint" />
            <mxPoint x="1408.0000000000005" y="1060" as="targetPoint" />
          </mxGeometry>
        </mxCell>
        <mxCell id="4t9yoJMSTtvMrReP9KKP-59" value="updated every menu item&#39;s availability from inventory service" style="text;html=1;align=center;verticalAlign=middle;resizable=0;points=[];autosize=1;strokeColor=none;fillColor=none;" vertex="1" parent="1">
          <mxGeometry x="995" y="1030" width="350" height="30" as="geometry" />
        </mxCell>
        <mxCell id="4t9yoJMSTtvMrReP9KKP-60" value="" style="rounded=1;whiteSpace=wrap;html=1;" vertex="1" parent="1">
          <mxGeometry x="930" y="1120" width="20" height="80" as="geometry" />
        </mxCell>
        <mxCell id="4t9yoJMSTtvMrReP9KKP-61" value="" style="rounded=1;whiteSpace=wrap;html=1;" vertex="1" parent="1">
          <mxGeometry x="1410" y="1160" width="20" height="120" as="geometry" />
        </mxCell>
        <mxCell id="4t9yoJMSTtvMrReP9KKP-62" value="" style="endArrow=classic;html=1;rounded=0;entryX=0;entryY=0.073;entryDx=0;entryDy=0;entryPerimeter=0;exitX=1;exitY=0.75;exitDx=0;exitDy=0;" edge="1" parent="1" source="4t9yoJMSTtvMrReP9KKP-60">
          <mxGeometry width="50" height="50" relative="1" as="geometry">
            <mxPoint x="953" y="1180" as="sourcePoint" />
            <mxPoint x="1409.5" y="1180" as="targetPoint" />
          </mxGeometry>
        </mxCell>
        <mxCell id="4t9yoJMSTtvMrReP9KKP-63" value="invoke cron job from data load service, retrieve menu items&amp;nbsp;" style="text;html=1;align=center;verticalAlign=middle;resizable=0;points=[];autosize=1;strokeColor=none;fillColor=none;" vertex="1" parent="1">
          <mxGeometry x="995" y="1130" width="340" height="30" as="geometry" />
        </mxCell>
        <mxCell id="4t9yoJMSTtvMrReP9KKP-65" value="process: stock updated" style="rounded=1;whiteSpace=wrap;html=1;" vertex="1" parent="1">
          <mxGeometry x="-10" y="820" width="120" height="60" as="geometry" />
        </mxCell>
        <mxCell id="4t9yoJMSTtvMrReP9KKP-66" value="" style="rounded=1;whiteSpace=wrap;html=1;" vertex="1" parent="1">
          <mxGeometry x="930" y="1240" width="20" height="120" as="geometry" />
        </mxCell>
        <mxCell id="4t9yoJMSTtvMrReP9KKP-67" value="" style="endArrow=none;html=1;rounded=0;entryX=0;entryY=0.181;entryDx=0;entryDy=0;entryPerimeter=0;startArrow=block;startFill=1;endFill=0;" edge="1" parent="1">
          <mxGeometry width="50" height="50" relative="1" as="geometry">
            <mxPoint x="950" y="1260.28" as="sourcePoint" />
            <mxPoint x="1410.0000000000005" y="1260" as="targetPoint" />
          </mxGeometry>
        </mxCell>
        <mxCell id="4t9yoJMSTtvMrReP9KKP-68" value="transform data to required mapping for menu data" style="text;html=1;align=center;verticalAlign=middle;resizable=0;points=[];autosize=1;strokeColor=none;fillColor=none;" vertex="1" parent="1">
          <mxGeometry x="1025" y="1210" width="290" height="30" as="geometry" />
        </mxCell>
        <mxCell id="4t9yoJMSTtvMrReP9KKP-69" value="" style="rounded=1;whiteSpace=wrap;html=1;" vertex="1" parent="1">
          <mxGeometry x="1171" y="1320" width="20" height="80" as="geometry" />
        </mxCell>
        <mxCell id="4t9yoJMSTtvMrReP9KKP-70" value="" style="endArrow=classic;html=1;rounded=0;exitX=1.15;exitY=0.833;exitDx=0;exitDy=0;exitPerimeter=0;entryX=0;entryY=0.25;entryDx=0;entryDy=0;" edge="1" parent="1" source="4t9yoJMSTtvMrReP9KKP-66" target="4t9yoJMSTtvMrReP9KKP-69">
          <mxGeometry width="50" height="50" relative="1" as="geometry">
            <mxPoint x="1190" y="1400" as="sourcePoint" />
            <mxPoint x="1240" y="1350" as="targetPoint" />
          </mxGeometry>
        </mxCell>
        <mxCell id="4t9yoJMSTtvMrReP9KKP-71" value="override existing menu data and&lt;br&gt;populate with new data, delete existing&lt;br&gt;data within menu log table&amp;nbsp;" style="text;html=1;align=center;verticalAlign=middle;resizable=0;points=[];autosize=1;strokeColor=none;fillColor=none;" vertex="1" parent="1">
          <mxGeometry x="950" y="1280" width="230" height="60" as="geometry" />
        </mxCell>
        <mxCell id="4t9yoJMSTtvMrReP9KKP-73" value="process: stock updated" style="rounded=1;whiteSpace=wrap;html=1;" vertex="1" parent="1">
          <mxGeometry x="-10" y="1210" width="120" height="60" as="geometry" />
        </mxCell>
      </root>
    </mxGraphModel>
  </diagram>
</mxfile>
